<?xml version="1.0" encoding="utf-8"?>
<!-- Generator: Adobe Illustrator 25.2.3, SVG Export Plug-In . SVG Version: 6.00 Build 0)  -->
<svg version="1.1" id="Layer_1" xmlns="http://www.w3.org/2000/svg" xmlns:xlink="http://www.w3.org/1999/xlink" x="0px" y="0px"
	 viewBox="0 0 108 38" style="enable-background:new 0 0 108 38;" xml:space="preserve">
<style type="text/css">
	.st0{fill-rule:evenodd;clip-rule:evenodd;}
</style>
<path class="st0" d="M31.8,16.6c-0.7-0.7-2.9-0.4-7.1-0.2c0.8-3.5,1.4-6.6,3-9C35,7.8,43.9,8.8,54.1,8.8c20.1-0.1,20.3-7.5,20.3-7.5
	C65.8,3.7,54.1,3,45.2,2.2C34,1.1,22.9-1.4,13.6,1C2.7,3.9,1.7,12,2.1,15.5c4.4-5.7,10.3-7.8,17.8-8.2c0.7,0,1.5-0.1,2.2-0.1
	c-1.4,1.4-2.4,3.7-3.5,7.2c-0.2,0.8-0.5,1.5-0.7,2.2c-9.3,0.8-11.1,5.1-10.6,6.2c0.6,1.2,3.9-0.4,8-0.8c0.3,0,0.5-0.1,0.8-0.1
	c-1.6,4.2-3.4,7.1-6.3,8.9c-4.4,2.6-8.9,1.4-9.9,0.7c0.4,4.9,7.7,7.5,13.9,4.1c5-2.7,7.8-9.2,9.4-14c1.4,0,2.7,0,4.1-0.1
	C31.1,21.3,32.7,17.4,31.8,16.6L31.8,16.6z M107,11.1c-0.2-0.1-0.4-0.1-0.6-0.1c-0.2,0-0.4,0.1-0.6,0.2c-0.2,0.1-0.3,0.2-0.4,0.4
	c-0.1,0.1-0.2,0.3-0.3,0.5c-0.1,0.4-0.1,0.8,0.1,1.1c-1.4,1.3-2.7,2.2-3.4,2c-0.9-0.3-0.2-2.7,0.7-4.9c0.4,0.1,0.8,0,1.1-0.2
	c0.3-0.2,0.6-0.5,0.7-0.9c0.1-0.4,0.1-0.9-0.1-1.2c-0.2-0.4-0.5-0.7-0.9-0.8c-0.2-0.1-0.4-0.1-0.6-0.1c-0.2,0-0.4,0.1-0.6,0.2
	c-0.2,0.1-0.4,0.2-0.5,0.4c-0.1,0.2-0.2,0.3-0.3,0.6c-0.2,0.6,0,1.2,0.4,1.7c-1.2,2.1-2.4,3.9-3.4,3.6l0,0c-1.1-0.3-1-2.5-0.7-5
	C98,8.4,98.5,8,98.7,7.4c0.1-0.4,0.1-0.9-0.1-1.2c-0.2-0.4-0.5-0.7-0.9-0.8c-0.2-0.1-0.4-0.1-0.6-0.1c-0.2,0-0.4,0.1-0.6,0.2
	c-0.2,0.1-0.4,0.2-0.5,0.4c-0.1,0.2-0.2,0.3-0.3,0.6c-0.2,0.8,0.1,1.6,0.8,1.9c-0.6,2.3-1.4,4.6-2.3,4.4c-0.7-0.2-1.2-1.8-1.6-3.6
	C92.8,9,93,8.7,93.1,8.5c0.1-0.3,0.2-0.5,0.2-0.8S93.2,7.1,93,6.9c-0.2-0.2-0.4-0.4-0.7-0.5c-0.2-0.1-0.4-0.1-0.6-0.1
	c-0.2,0-0.4,0.1-0.6,0.2c-0.2,0.1-0.3,0.2-0.4,0.4c-0.1,0.1-0.2,0.3-0.3,0.5c-0.1,0.2-0.1,0.4-0.1,0.6c0,0.2,0.1,0.4,0.2,0.6
	C90.7,8.7,90.8,8.9,91,9s0.4,0.2,0.6,0.2l0.3,6.3l10.3,3.3l3.8-4.9c0.2,0.1,0.4,0.1,0.6,0.1s0.4,0,0.6-0.1c0.2-0.1,0.4-0.2,0.5-0.4
	c0.1-0.2,0.2-0.3,0.3-0.5C108.2,12.2,107.8,11.4,107,11.1z"/>
<path class="st0" d="M95.2,28.6c-1.9,3.4-4.6,5.1-6.1,3.8c-1.4-1.3-1.1-5,0.8-8.4c1.9-3.4,4.6-5.1,6.1-3.8
	C97.5,21.4,97.1,25.2,95.2,28.6z M92.6,17c0,0-2.4,0.9-4.1,2.5c-0.6,0.5-1.1,1.1-1.6,1.7h0l0,0c-0.5,0.6-0.8,1.2-1.2,1.9
	c-0.5,0.9-1,1.9-1.4,2.9v0c0,0-1,2.1-1.7,3.1c-0.7,1-2,2-2.6,2.3c-0.6,0.3-1.3,0.5-1.9,0.7c-4.4,1.3-5.2-1.9-4.2-3.3
	c0.4-0.5,2.8-2.4,4.4-3.7c3.2-2.6,5.4-4.3,6.9-5.8c1.6-1.6,0.6-2.5-0.7-2.7c-3.1-0.5-4.5,0.3-5.4,1.1c-1.1,0.9-7.5,8.7-7.5,8.7
	S82,6.1,83.8,2.6c1.4-2.9-5.4-3.3-7.3,0.9c-1.1,2.4-8.6,19.8-9.5,21.9c-1.7,3.9-1.8,4.5-2.6,5.2c0,0,0,0,0,0l-0.1,0c0,0,0,0,0,0
	c-0.8,0.7-1.9,1.3-2.7,1.3c-0.5,0-0.7-0.3-0.8-0.8c-0.1-0.6,0-1.3,0.2-2.1c0.1-0.5,0.3-1.1,0.5-1.7c0.2-0.6,0.4-1.2,0.7-1.9
	c0.2-0.6,0.5-1.2,0.8-1.8l0.7-1.6c0.2-0.5,0.4-0.9,0.6-1.3c0.2-0.4,0.2-0.6,0.3-0.8c0.3-1,0.2-2-0.1-2.5c-0.3-0.6-0.7-0.9-1.4-0.9
	c-0.7,0-1.3,0.2-1.9,0.5c-0.7,0.4-1.3,0.8-1.9,1.5c-0.5,0.6-1.1,1.3-1.6,2c-0.3,0.5-0.7,0.9-1.1,1.4c-0.4,0.5-0.8,1-1.1,1.4
	c-0.5,0.6-1,1.3-1.5,1.9h-0.4c0-0.1,0.1-0.3,0.2-0.6c0.1-0.3,0.2-0.6,0.4-1c0.3-0.9,0.7-1.7,1-2.6c0.2-0.4,0.3-0.8,0.4-1.2
	c0.1-0.4,0.2-0.6,0.3-0.8c0.2-0.8,0.2-1.4,0-1.8c-0.2-0.5-0.6-0.7-1.4-0.7c-0.7,0-1.4,0.2-1.9,0.6c-0.5,0.4-1,1-1.3,1.6
	c-0.5,1-0.9,2-1.3,3c-1,2.4-1.9,4.8-2.7,7.3c-0.2,0.5-0.3,1-0.5,1.6c-1,0.5-2,0.9-3,1.2c-0.4,0.1-0.9,0.2-1.2-0.1
	c-0.2-0.2-0.2-0.6-0.2-0.9c0.2-1.6,0.9-3.2,1.5-4.7c1.1-2.5,2.2-5.1,3.2-7.7c0.1-0.3,0.2-0.7,0.1-1c-0.2-0.5-0.8-0.7-1.3-0.8
	c-1.2-0.2-2.5,0-3.2,0.9c-0.2,0.3-0.4,0.7-0.6,1l-3.8,8.7c-0.8,1.8-1.8,3.8-3.7,4.5c-0.3,0.1-0.7,0.2-1,0c-0.4-0.2-0.6-0.7-0.6-1.1
	c0-0.4,0.2-0.9,0.3-1.3c1.6-3.9,2.7-6.6,4.3-10.4c0.1-0.2,0.5-1.1,0.5-1.5c0-0.1,0-0.3-0.1-0.4c-0.1-0.1-0.2-0.2-0.3-0.3
	c-1-0.5-2.2-0.2-3.1,0.5c-1.4,1-2.2,2.6-2.9,4.2c-0.8,1.7-1.6,3.4-2.3,5.2c-0.8,2-1.7,3.9-2.1,6.1c-0.2,1.1-0.2,2.5,0.6,3.3
	c0.5,0.5,1.3,0.7,2,0.7c2.9,0.1,5.6-1.4,7.7-3.4c0.1,1.1,0.2,2.3,1.1,2.8c0.6,0.4,1.3,0.4,1.9,0.3c1.3-0.1,2.6-0.6,3.9-1.1
	c0.5-0.2,1-0.4,1.5-0.7c0,0.2,0,0.4,0.1,0.6c0.1,0.4,0.3,0.7,0.6,1c0.3,0.2,0.7,0.4,1.3,0.4c0.5,0,0.9-0.1,1.3-0.3
	c0.4-0.2,0.8-0.6,1.2-1.2l8.1-10.8h0.3c-0.4,1-0.8,2.1-1.2,3.1c-0.3,0.9-0.6,1.8-0.8,2.7c-0.5,2.1-0.7,3.7-0.4,4.8
	c0.2,1.1,0.7,1.7,1.5,1.7c0.8,0,1.5-0.1,2.3-0.3c0.8-0.2,1.5-0.5,2.2-0.8c0.5-0.2,1-0.5,1.5-0.8c0,0.2-0.1,0.5-0.1,0.7
	c0,0.6,0.1,0.7,0.3,1c0.3,0.3,0.6,0.3,1.2,0.3c0.4,0,0.6,0,1-0.3c0.4-0.3,1.7-2.2,2.7-3.7c0.2-0.2,0.4-0.5,0.6-0.7
	c-0.4,1.8,0.4,4.3,2.8,4.7c2.4,0.4,6.2-0.2,11.1-4c0.1,0.5,0.2,1,0.4,1.5c0.4,0.9,0.9,1.6,1.7,2.2c0.8,0.6,1.8,0.8,3.1,0.8
	c0.9,0,1.8-0.2,2.6-0.5c0.9-0.3,1.7-0.7,2.5-1.2c0.8-0.5,1.5-1.2,2.2-1.9c1.3-1.4,2.4-3,3.2-4.7c0.7-1.6,1-2.8,1.4-4.7
	c0.2-1,0.3-1.9,0.2-2.7c0,0-0.1-2-0.4-2.2C100.1,19.2,92.6,17,92.6,17"/>
</svg>
